<svg width="150" height="150" viewBox="0 0 150 150" fill="none" xmlns="http://www.w3.org/2000/svg">
<g clip-path="url(#clip0_26_2028)">
<rect width="150" height="150" rx="75" fill="#FFEFD3"/>
<path d="M85.0107 20.4388L15.75 86.3266C10.8237 91.0127 12.8159 99.2758 19.3377 101.2L111.016 128.25C117.538 130.176 123.696 124.323 122.101 117.706L99.6825 24.7681C98.0885 18.1579 89.937 15.7527 85.0107 20.4388Z" fill="#FFC49B"/>
<path d="M84.3009 102.867H54.2765C49.7188 111.875 47.4379 121.865 47.6338 131.961L90.2666 132C90.1128 126.671 89.4673 121.368 88.3385 116.159C87.3502 111.627 85.9999 107.182 84.3009 102.867Z" fill="#6DC8C2"/>
<path d="M81.8222 66.5555H57.7555V92.3111H81.8222V66.5555Z" fill="black"/>
<path d="M72.3597 62.3333H66.4764C64.6114 62.3333 62.8228 61.6 61.5041 60.2946C60.1853 58.9892 59.4445 57.2187 59.4445 55.3726V48.0142C59.4445 46.2129 60.1674 44.4853 61.4541 43.2116C62.7409 41.9378 64.4862 41.2222 66.3059 41.2222H72.3352C74.7393 41.2222 77.045 42.1676 78.745 43.8504C80.445 45.5331 81.4 47.8155 81.4 50.1953V53.3846C81.4 55.758 80.4476 58.0341 78.7522 59.7123C77.0568 61.3905 74.7574 62.3333 72.3597 62.3333Z" fill="black"/>
<path d="M79.7111 59.8L83.2783 47.9682C83.3281 47.8028 83.4136 47.6505 83.5288 47.5222C83.6439 47.3938 83.7859 47.2924 83.9445 47.2254C84.1032 47.1584 84.2746 47.1273 84.4466 47.1343C84.6186 47.1414 84.787 47.1864 84.9396 47.2662L88.7917 49.2759C88.9588 49.3632 89.1026 49.4896 89.2106 49.6444C89.3187 49.7993 89.3878 49.978 89.4123 50.1655C89.4367 50.3529 89.4157 50.5435 89.351 50.721C89.2863 50.8986 89.1798 51.0578 89.0406 51.1852L79.7111 59.8Z" fill="#EE7B70"/>
<path d="M78.8667 59.3778L88.7919 52.8157C88.9461 52.7139 89.1198 52.6503 89.3003 52.6296C89.4807 52.609 89.6633 52.6317 89.8343 52.6961C90.0054 52.7605 90.1606 52.8651 90.2884 53.0019C90.4163 53.1387 90.5134 53.3044 90.5728 53.4865L91.8893 57.534C91.9519 57.7262 91.9705 57.9314 91.9437 58.1328C91.9169 58.3342 91.8453 58.5259 91.735 58.6921C91.6246 58.8583 91.4786 58.9943 91.309 59.0888C91.1395 59.1833 90.9512 59.2336 90.7597 59.2356L78.8667 59.3778Z" fill="#EE7B70"/>
<path d="M81.8222 60.2222C81.4046 60.2222 80.9965 60.0984 80.6493 59.8664C80.3021 59.6345 80.0315 59.3048 79.8718 58.919C79.712 58.5332 79.6702 58.1088 79.7516 57.6993C79.8331 57.2897 80.0342 56.9136 80.3294 56.6183C80.6246 56.3231 81.0008 56.122 81.4103 56.0406C81.8198 55.9591 82.2443 56.0009 82.6301 56.1607C83.0158 56.3205 83.3455 56.5911 83.5775 56.9382C83.8095 57.2854 83.9333 57.6936 83.9333 58.1111C83.9325 58.6708 83.7099 59.2073 83.3141 59.603C82.9184 59.9988 82.3818 60.2215 81.8222 60.2222ZM81.8222 56.5808C81.5195 56.5808 81.2236 56.6705 80.972 56.8387C80.7203 57.0068 80.5242 57.2458 80.4083 57.5255C80.2925 57.8051 80.2622 58.1128 80.3212 58.4097C80.3803 58.7065 80.526 58.9792 80.7401 59.1932C80.9541 59.4072 81.2268 59.553 81.5236 59.612C81.8205 59.6711 82.1282 59.6408 82.4078 59.525C82.6874 59.4091 82.9264 59.213 83.0946 58.9613C83.2628 58.7097 83.3525 58.4138 83.3525 58.1111C83.3517 57.7055 83.1903 57.3167 82.9034 57.0298C82.6166 56.743 82.2278 56.5815 81.8222 56.5808Z" fill="black"/>
<path d="M78.0057 54.8506C78.0881 54.0728 77.8604 53.2938 77.3719 52.6823C76.8834 52.0708 76.1734 51.676 75.3956 51.5833L75.4141 49.5728C75.4241 48.9352 75.3079 48.3019 75.0722 47.7092C74.8365 47.1164 74.4859 46.576 74.0406 46.1189C73.5952 45.6618 73.0638 45.297 72.477 45.0454C71.8901 44.7938 71.2592 44.6603 70.6205 44.6527L63.1997 44.6C62.2276 44.5989 61.2947 44.9827 60.6056 45.6673C59.9164 46.3519 59.5273 47.2814 59.5235 48.252L59.4451 57.3014C59.4341 58.0604 59.5731 58.8141 59.8542 59.5194C60.1352 60.2247 60.5528 60.8678 61.083 61.4118C61.6131 61.9559 62.2455 62.3902 62.944 62.69C63.6424 62.9898 64.3932 63.1492 65.1534 63.1591H65.4959L65.4502 68.1746L75.2557 68.2444L75.3099 62.3041H75.3014L75.3456 57.5265C76.0297 57.4543 76.668 57.1487 77.1526 56.6612C77.6372 56.1737 77.9385 55.5342 78.0057 54.8506Z" fill="white"/>
<path d="M96.982 80.2038L85.2001 87.109L92.5171 102.153C92.5171 102.153 95.8197 108.387 102.013 105.465C103.263 104.864 104.377 104.018 105.289 102.977C106.2 101.936 106.89 100.723 107.317 99.4097L113.683 80.2038C113.683 80.2038 123.036 77.0469 124.423 68.9223C124.477 68.6648 124.481 68.3996 124.436 68.1405C124.365 67.7531 124.187 67.3929 123.923 67.1001C124.018 66.8856 124.094 66.6636 124.151 66.4363C124.28 65.9203 124.403 65.4171 123.983 64.9907C123.808 64.8024 123.567 64.6884 123.309 64.6725C123.052 64.6566 122.799 64.7401 122.602 64.9054C122.699 64.3767 122.553 63.9105 122.226 63.7058C122.091 63.627 121.935 63.5908 121.78 63.602C121.04 63.6461 120.503 64.6538 120.35 64.9353C119.724 66.0724 118.401 67.9955 116.443 70.6919C116.443 70.6919 119.261 66.8925 117.761 65.8464C117.313 65.5351 116.779 65.9715 116.484 66.2813C115.939 66.8499 115.729 67.6359 115.325 68.2898C114.791 69.1098 114.078 69.7993 113.239 70.3067C111.916 71.1425 110.452 71.586 109.246 72.6051C108.696 73.0642 108.207 73.5894 107.787 74.1686C107.297 74.8537 107.124 75.6625 106.701 76.3547L100.152 87.008L96.982 80.2038Z" fill="white"/>
<path d="M99.1053 106.667C94.8838 106.667 92.6182 102.451 92.5912 102.398L85.2001 87.0098L97.4082 79.7666L100.467 86.4204L106.698 76.1528C106.871 75.8503 107.02 75.5346 107.145 75.2086C107.311 74.7619 107.528 74.3358 107.79 73.9382C108.22 73.3342 108.722 72.7863 109.287 72.3073C110.037 71.6635 110.887 71.24 111.703 70.8309C112.244 70.5732 112.772 70.2866 113.283 69.9725C114.084 69.4869 114.765 68.8239 115.273 68.034C115.414 67.7944 115.54 67.547 115.653 67.2929C115.867 66.8337 116.089 66.3602 116.462 65.9653C117.265 65.1069 117.833 65.3029 118.1 65.4918C118.245 65.5948 118.368 65.7269 118.46 65.8798C118.552 66.0327 118.611 66.2031 118.635 66.3802C118.675 66.694 118.658 67.0127 118.584 67.3201C119.382 66.1456 119.931 65.2786 120.262 64.6706L120.271 64.652C120.461 64.3015 121.04 63.2328 121.917 63.1813C122.13 63.1634 122.343 63.2135 122.527 63.3244C122.683 63.4328 122.813 63.5765 122.905 63.7441C122.997 63.9118 123.049 64.0987 123.057 64.2901C123.282 64.2331 123.518 64.2374 123.741 64.3025C123.964 64.3676 124.166 64.4912 124.326 64.6606C124.859 65.2057 124.697 65.8594 124.568 66.3845C124.522 66.5715 124.464 66.755 124.393 66.9339C124.602 67.2059 124.75 67.5202 124.828 67.8553C124.905 68.1903 124.909 68.5383 124.841 68.8752C124.272 72.2844 122.201 75.3717 118.871 77.7937C117.402 78.8647 115.801 79.7394 114.109 80.396L107.827 99.5922C107.389 100.95 106.683 102.205 105.751 103.282C104.819 104.358 103.681 105.234 102.404 105.857C101.378 106.371 100.251 106.648 99.1053 106.667ZM85.9378 87.2359L93.0986 102.14C93.6965 103.179 94.492 104.088 95.4396 104.817C97.4565 106.332 99.7179 106.508 102.161 105.339C103.368 104.749 104.444 103.921 105.325 102.903C106.205 101.884 106.873 100.698 107.287 99.4134L113.663 79.9483L113.798 79.9025C113.889 79.871 122.953 76.6807 124.286 68.7693C124.334 68.5428 124.338 68.3093 124.299 68.0812C124.238 67.7436 124.085 67.4297 123.857 67.1742L123.735 67.0311L123.809 66.8623C123.897 66.6618 123.968 66.4541 124.02 66.2414C124.153 65.7021 124.219 65.3573 123.925 65.0554C123.803 64.919 123.633 64.8351 123.451 64.8213C123.269 64.8074 123.089 64.8646 122.947 64.981L122.325 65.5533L122.477 64.7207C122.551 64.3129 122.453 63.9453 122.232 63.8094C122.149 63.76 122.052 63.7385 121.955 63.7478C121.583 63.7693 121.185 64.1656 120.775 64.9224L120.765 64.9396C120.176 66.024 118.99 67.8008 116.928 70.6778L116.864 70.7679L116.405 70.4303L116.497 70.3015C117.066 69.4861 118.254 67.5304 118.082 66.4675C118.07 66.3657 118.038 66.2675 117.986 66.1793C117.934 66.0911 117.865 66.0148 117.782 65.9553C117.498 65.755 117.059 66.1685 116.882 66.3559C116.572 66.6821 116.381 67.0955 116.172 67.5333C116.049 67.8061 115.912 68.072 115.761 68.3301C115.209 69.1932 114.47 69.9187 113.599 70.4518C113.068 70.7774 112.52 71.0739 111.957 71.3402C111.13 71.7536 110.348 72.1428 109.65 72.7408C109.126 73.1901 108.66 73.7033 108.262 74.2687C108.025 74.6316 107.829 75.0203 107.679 75.4275C107.543 75.7808 107.38 76.1232 107.193 76.4518L100.404 87.6307L97.1623 80.5806L85.9378 87.2359Z" fill="black"/>
<path d="M75.0665 55.9949C75.0238 55.9967 74.9811 55.9967 74.9384 55.9949C74.6893 55.9737 74.4532 55.8915 74.2601 55.7586C74.067 55.6257 73.9255 55.4481 73.8534 55.2482C73.7814 55.0483 73.7821 54.8351 73.8554 54.6355C73.9287 54.4359 74.0714 54.2589 74.2654 54.1269C74.4594 53.9949 74.6959 53.9137 74.9452 53.8937C75.1945 53.8737 75.4453 53.9158 75.6659 54.0145C75.8866 54.1133 76.0671 54.2644 76.1848 54.4486C76.3024 54.6329 76.3519 54.8421 76.327 55.0497C76.2953 55.3099 76.1491 55.551 75.9165 55.7265C75.684 55.902 75.3817 55.9994 75.068 56L75.0665 55.9949ZM75.0665 54.3978C74.9408 54.3978 74.8178 54.4283 74.7124 54.4854C74.6071 54.5425 74.5238 54.6239 74.4729 54.7197C74.4219 54.8154 74.4054 54.9214 74.4253 55.0249C74.4452 55.1283 74.5007 55.2247 74.585 55.3024C74.6694 55.3801 74.7789 55.4357 74.9004 55.4625C75.022 55.4893 75.1502 55.4861 75.2696 55.4534C75.389 55.4207 75.4944 55.3598 75.5731 55.2781C75.6518 55.1964 75.7004 55.0974 75.7129 54.9932C75.7297 54.8503 75.678 54.7078 75.5689 54.5967C75.4599 54.4856 75.3026 54.415 75.1313 54.4004L75.0665 54.3978Z" fill="black"/>
<path d="M65.8016 62.9033L71.528 62.7557C71.5652 62.7542 71.6017 62.7669 71.6308 62.7915C71.6598 62.8161 71.6796 62.8509 71.6864 62.8896C71.6931 62.9283 71.6865 62.9683 71.6677 63.0022C71.6489 63.0362 71.6191 63.0619 71.5839 63.0745L65.7778 65.2889L65.8016 62.9033Z" fill="black"/>
<path d="M74.0808 55.1555C74.0132 55.1559 73.9478 55.1312 73.8975 55.0864C73.8472 55.0416 73.8156 54.9799 73.8088 54.9132C73.7781 54.6144 73.8274 54.3129 73.9518 54.039C74.0762 53.7651 74.2713 53.5284 74.5174 53.3529C74.7537 53.1933 75.0252 53.092 75.3092 53.0576C75.5932 53.0232 75.8813 53.0565 76.1496 53.155C76.1843 53.1668 76.2162 53.1854 76.2435 53.2097C76.2707 53.2341 76.2927 53.2637 76.3081 53.2966C76.3236 53.3296 76.3321 53.3654 76.3331 53.4017C76.3342 53.438 76.3279 53.4742 76.3145 53.508C76.301 53.5418 76.2809 53.5726 76.2551 53.5985C76.2293 53.6244 76.1986 53.6449 76.1646 53.6587C76.1306 53.6725 76.0942 53.6794 76.0575 53.6789C76.0208 53.6784 75.9845 53.6705 75.951 53.6558C75.7673 53.5906 75.5709 53.5689 75.3772 53.5922C75.1836 53.6156 74.9981 53.6835 74.8357 53.7904C74.6673 53.9105 74.5339 54.0725 74.4489 54.2599C74.3638 54.4473 74.3303 54.6536 74.3515 54.858C74.3551 54.8932 74.3516 54.9287 74.3413 54.9626C74.331 54.9964 74.3141 55.028 74.2915 55.0553C74.2689 55.0827 74.241 55.1054 74.2095 55.1222C74.1781 55.1389 74.1436 55.1493 74.108 55.1528L74.0808 55.1555Z" fill="black"/>
<path d="M45.5514 79.3593L57.3333 86.2644L50.0163 101.308C50.0163 101.308 46.7123 107.543 40.5204 104.62C39.2704 104.02 38.1559 103.174 37.2443 102.133C36.3326 101.092 35.6427 99.8786 35.2164 98.5652L28.8486 79.3593C28.8486 79.3593 19.4957 76.2023 18.1104 68.0776C18.0568 67.8202 18.0524 67.555 18.0975 67.2959C18.1674 66.9087 18.3441 66.5485 18.6079 66.2554C18.5129 66.041 18.4363 65.8189 18.3791 65.5916C18.2505 65.0771 18.1275 64.5725 18.5493 64.1461C18.7241 63.9581 18.965 63.8444 19.2219 63.8286C19.4788 63.8127 19.7321 63.8958 19.9289 64.0608C19.8317 63.532 19.9789 63.0658 20.3049 62.8611C20.4398 62.7829 20.5952 62.7468 20.751 62.7573C21.4901 62.8014 22.0277 63.8092 22.1806 64.0906C22.8083 65.2277 24.1307 67.1523 26.0879 69.8473C26.0879 69.8473 23.27 66.0479 24.7698 65.0017C25.2173 64.6904 25.7519 65.1282 26.0479 65.4367C26.5926 66.0052 26.8013 66.7927 27.2059 67.4451C27.7401 68.2646 28.4531 68.9539 29.2918 69.4621C30.6142 70.2979 32.0782 70.7413 33.2863 71.7605C33.8352 72.22 34.325 72.7452 34.7446 73.324C35.2335 74.0091 35.4079 74.8165 35.8311 75.5087L42.379 86.1621L45.5514 79.3593Z" fill="white"/>
<path d="M43.4375 105.822C42.2909 105.805 41.1629 105.528 40.137 105.012C38.8607 104.39 37.7227 103.514 36.7911 102.437C35.8595 101.36 35.1536 100.106 34.7157 98.7478L28.423 79.5516C26.7304 78.8956 25.1297 78.0208 23.6613 76.9493C20.3323 74.5287 18.2684 71.4399 17.6913 68.0207C17.6239 67.6854 17.6292 67.3395 17.7067 67.0064C17.7842 66.6734 17.9322 66.3611 18.1405 66.0908C18.0711 65.9114 18.0128 65.728 17.9657 65.5414C17.8363 65.015 17.6814 64.3626 18.2073 63.8161C18.3675 63.6469 18.5693 63.5235 18.7923 63.4584C19.0153 63.3933 19.2514 63.3889 19.4766 63.4456C19.4845 63.2542 19.5366 63.0674 19.6286 62.8998C19.7206 62.7322 19.8501 62.5884 20.0068 62.4799C20.1902 62.3692 20.4035 62.3191 20.6166 62.3368C21.4936 62.3898 22.0721 63.457 22.2626 63.8075L22.2726 63.8261C22.6094 64.4456 23.1496 65.3025 23.9513 66.4785C23.8761 66.1702 23.8587 65.8504 23.9001 65.5357C23.923 65.3584 23.9823 65.1878 24.0744 65.0349C24.1664 64.8819 24.289 64.7499 24.4345 64.6473C24.7018 64.4584 25.2703 64.2696 26.0734 65.1208C26.4444 65.5157 26.6676 65.9907 26.8822 66.4485C26.9941 66.7028 27.1208 66.9503 27.2617 67.1895C27.7679 67.9792 28.446 68.6426 29.2446 69.1295C29.7565 69.4428 30.284 69.7293 30.8252 69.9878C31.6468 70.397 32.4968 70.8219 33.2417 71.4642C33.8059 71.9436 34.3092 72.4914 34.7398 73.0952C35.0015 73.4928 35.2175 73.9189 35.3837 74.3656C35.5091 74.6917 35.6588 75.0078 35.8315 75.3112L42.0644 85.5774L45.1233 78.9235L57.3333 86.1682L49.9419 101.546C49.9249 101.605 47.6577 105.822 43.4375 105.822ZM19.171 63.9763C18.9629 63.9804 18.7648 64.0667 18.6195 64.2167C18.3239 64.5185 18.3907 64.8647 18.5243 65.4027C18.576 65.6155 18.6464 65.8233 18.7346 66.0236L18.8086 66.1924L18.6877 66.3354C18.4589 66.5901 18.3057 66.9044 18.2457 67.2425C18.2061 67.4671 18.21 67.6974 18.2571 67.9206C19.5932 75.8491 28.6547 79.0323 28.7471 79.0637L28.8807 79.1095L35.2558 98.5747C35.6695 99.8591 36.3368 101.046 37.2176 102.065C38.0984 103.083 39.1745 103.912 40.3814 104.502C42.8306 105.672 45.0977 105.493 47.1176 103.967C48.0618 103.238 48.854 102.33 49.4487 101.293L56.6041 86.3971L45.3877 79.7419L42.1454 86.7834L35.3567 75.6031C35.1684 75.2749 35.0059 74.9324 34.8706 74.5787C34.7198 74.1718 34.5243 73.7831 34.2878 73.4199C33.8841 72.8586 33.4129 72.3497 32.8849 71.9049C32.187 71.3069 31.4066 70.9177 30.5793 70.5043C30.0195 70.2378 29.4743 69.9412 28.9461 69.6159C28.0745 69.0828 27.3348 68.3574 26.7827 67.4942C26.6315 67.2366 26.4948 66.9706 26.3734 66.6974C26.1687 66.2596 25.9754 65.8476 25.6626 65.52C25.4864 65.3326 25.0458 64.9191 24.7615 65.1194C24.6788 65.1791 24.6094 65.2554 24.5578 65.3436C24.5061 65.4318 24.4734 65.5299 24.4615 65.6316C24.2896 66.6945 25.4679 68.6359 26.0436 69.4614L26.1388 69.5944L25.6797 69.932L25.6157 69.8419C23.549 66.9578 22.3635 65.1866 21.7779 64.1051L21.768 64.0865C21.3572 63.3297 20.9606 62.9348 20.5868 62.9119C20.4903 62.9033 20.3935 62.9248 20.3096 62.9735C20.0893 63.1165 19.9912 63.477 20.0665 63.8862L20.2172 64.7174L19.596 64.1451C19.4807 64.0368 19.3288 63.9765 19.171 63.9763Z" fill="black"/>
<path d="M60.7112 54.3111C60.9443 54.3111 61.1334 54.0275 61.1334 53.6778C61.1334 53.328 60.9443 53.0444 60.7112 53.0444C60.478 53.0444 60.2889 53.328 60.2889 53.6778C60.2889 54.0275 60.478 54.3111 60.7112 54.3111Z" fill="black"/>
<path d="M66.8334 53.8889C67.1832 53.8889 67.4667 53.6998 67.4667 53.4667C67.4667 53.2335 67.1832 53.0444 66.8334 53.0444C66.4836 53.0444 66.2001 53.2335 66.2001 53.4667C66.2001 53.6998 66.4836 53.8889 66.8334 53.8889Z" fill="black"/>
<path d="M62.8719 56C62.8413 55.9998 62.8109 55.994 62.7821 55.9829C62.3799 55.8401 61.9778 55.6288 61.9778 55.2547C61.9824 55.1847 61.9999 55.1164 62.0293 55.0537C62.0588 54.991 62.0996 54.9351 62.1494 54.8892C62.184 54.8517 62.2167 54.8121 62.2472 54.7707C62.3832 54.5831 62.4648 54.3573 62.4818 54.121L62.707 51.6153C62.7138 51.5395 62.7485 51.4698 62.8036 51.4213C62.8586 51.3728 62.9295 51.3497 63.0006 51.3568C63.0717 51.364 63.1372 51.401 63.1827 51.4597C63.2282 51.5183 63.25 51.5938 63.2432 51.6695L63.0154 54.1767C62.9885 54.5195 62.8693 54.8467 62.6722 55.1191C62.6306 55.1762 62.5944 55.219 62.5636 55.2547C62.6902 55.3346 62.8252 55.3983 62.9658 55.4446C63.0257 55.4667 63.0764 55.5108 63.1087 55.5689C63.1411 55.6271 63.153 55.6956 63.1424 55.7622C63.1318 55.8289 63.0993 55.8893 63.0508 55.9329C63.0022 55.9764 62.9407 56.0002 62.8773 56H62.8719Z" fill="black"/>
<path d="M63.7991 58.5333C63.3542 58.5215 62.9205 58.3981 62.5418 58.1756C62.5082 58.1565 62.479 58.1312 62.4559 58.1012C62.4329 58.0711 62.4164 58.037 62.4076 58.0007C62.3987 57.9645 62.3976 57.927 62.4044 57.8903C62.4112 57.8537 62.4257 57.8187 62.447 57.7876C62.4683 57.7564 62.4961 57.7296 62.5285 57.7089C62.561 57.6881 62.5975 57.6739 62.6359 57.6669C62.6743 57.6599 62.7138 57.6604 62.752 57.6683C62.7903 57.6762 62.8264 57.6913 62.8583 57.7128C62.8685 57.7197 63.4666 58.0775 64.0547 57.9546C64.2155 57.9158 64.3664 57.8462 64.4979 57.75C64.6295 57.6538 64.739 57.5331 64.8198 57.3952C64.861 57.3332 64.9264 57.2894 65.0015 57.2734C65.0767 57.2573 65.1554 57.2703 65.2205 57.3095C65.2856 57.3487 65.3316 57.4109 65.3485 57.4824C65.3654 57.5539 65.3517 57.6288 65.3105 57.6907C65.1616 57.9476 64.9426 58.1614 64.6766 58.3097C64.4106 58.458 64.1074 58.5352 63.7991 58.5333Z" fill="black"/>
<path d="M54.1837 102.867L51.6779 90.6682C51.2514 88.5939 51.3599 86.4448 51.9929 84.4241L57.5915 66.5555H62.5843L63.7298 69.1043C66.1883 74.5764 73.9805 74.4587 76.2743 68.9163L77.2508 66.5555H81.6552L87.1722 84.7226C87.8841 87.0642 87.9194 89.5602 87.2738 91.9211L84.2841 102.867H54.1837Z" fill="#6DC8C2"/>
<path d="M70.4222 48.8222H67.6927C66.8489 48.8222 66.0396 48.4703 65.443 47.8437C64.8463 47.2172 64.5111 46.3675 64.5111 45.4814V43.3333H70.4222V48.8222Z" fill="black"/>
<path d="M81.8223 66.5825L87.6851 85.9778L98.7112 79.5344C97.4928 77.3216 96.1394 75.1844 94.6584 73.1348C92.0447 69.5207 90.69 67.6953 88.3945 66.772C85.9549 65.7822 83.5039 66.1258 81.8223 66.5825Z" fill="black"/>
<path d="M78.0208 51.7778H73.1517C72.6822 51.7776 72.2173 51.6872 71.7836 51.5117C71.3499 51.3363 70.9558 51.0792 70.624 50.7551C70.2921 50.4311 70.0289 50.0465 69.8494 49.6232C69.6699 49.1999 69.5776 48.7463 69.5778 48.2882V46.7111H78.0222L78.0208 51.7778Z" fill="black"/>
<path d="M76.3334 43.3333H67.8889V48.8222H76.3334V43.3333Z" fill="black"/>
<path d="M80.5555 72.0444C84.2865 72.0444 87.311 68.9254 87.311 65.0778C87.311 61.2302 84.2865 58.1111 80.5555 58.1111C76.8245 58.1111 73.7999 61.2302 73.7999 65.0778C73.7999 68.9254 76.8245 72.0444 80.5555 72.0444Z" fill="black"/>
<path d="M75.4889 76.6889C78.2871 76.6889 80.5556 74.4205 80.5556 71.6222C80.5556 68.824 78.2871 66.5555 75.4889 66.5555C72.6907 66.5555 70.4222 68.824 70.4222 71.6222C70.4222 74.4205 72.6907 76.6889 75.4889 76.6889Z" fill="black"/>
<path d="M84.3556 76.6889C87.1539 76.6889 89.4223 74.515 89.4223 71.8333C89.4223 69.1517 87.1539 66.9778 84.3556 66.9778C81.5574 66.9778 79.2889 69.1517 79.2889 71.8333C79.2889 74.515 81.5574 76.6889 84.3556 76.6889Z" fill="black"/>
<path d="M74.2587 94H65.3178C63.9843 93.9985 62.7058 93.4684 61.763 92.5261C60.8202 91.5838 60.2901 90.3062 60.2889 88.9738V82.9313C60.2889 82.2843 60.5459 81.6637 61.0033 81.2058C61.4608 80.7479 62.0814 80.49 62.729 80.4889H76.8475C77.4948 80.4897 78.1153 80.7469 78.573 81.2043C79.0307 81.6616 79.2882 82.2816 79.2889 82.9284V88.9709C79.2882 90.3039 78.7581 91.5822 77.8149 92.5251C76.8718 93.468 75.5928 93.9985 74.2587 94ZM62.729 81.0663C62.2351 81.0671 61.7616 81.2635 61.4125 81.6126C61.0634 81.9617 60.8672 82.4349 60.8668 82.9284V88.9709C60.8679 90.1502 61.3372 91.2809 62.1716 92.1149C63.0061 92.9489 64.1375 93.4182 65.3178 93.4197H74.2587C75.4392 93.4186 76.571 92.9495 77.4057 92.1154C78.2405 91.2813 78.7099 90.1504 78.7111 88.9709V82.9313C78.7111 82.4372 78.5148 81.9632 78.1654 81.6136C77.816 81.2639 77.342 81.0671 76.8475 81.0663H62.729Z" fill="white"/>
<path d="M79.2888 83.4445C82.0871 83.4445 84.3555 81.176 84.3555 78.3778C84.3555 75.5796 82.0871 73.3111 79.2888 73.3111C76.4906 73.3111 74.2222 75.5796 74.2222 78.3778C74.2222 81.176 76.4906 83.4445 79.2888 83.4445Z" fill="black"/>
<path d="M97.2767 91.8889C97.2304 91.8887 97.185 91.8751 97.1454 91.8496C97.1058 91.824 97.0735 91.7874 97.0518 91.7437C97.0302 91.7001 97.0201 91.6509 97.0226 91.6016C97.0251 91.5523 97.0401 91.5046 97.066 91.4636L99.9324 86.9425C99.9512 86.9128 99.9752 86.8873 100.003 86.8676C100.031 86.8478 100.063 86.8341 100.096 86.8272C100.129 86.8204 100.162 86.8206 100.195 86.8277C100.228 86.8349 100.259 86.8489 100.287 86.8689C100.315 86.889 100.339 86.9147 100.358 86.9446C100.376 86.9745 100.389 87.008 100.395 87.0431C100.402 87.0783 100.402 87.1145 100.395 87.1496C100.388 87.1848 100.375 87.2181 100.356 87.2478L97.4886 91.769C97.4652 91.806 97.4336 91.8362 97.3967 91.8572C97.3597 91.8781 97.3185 91.889 97.2767 91.8889Z" fill="black"/>
<path d="M120.966 72.8889C120.906 72.889 120.847 72.8714 120.797 72.8384C120.747 72.8053 120.709 72.7584 120.687 72.7038C120.665 72.6492 120.661 72.5894 120.675 72.5324C120.688 72.4754 120.72 72.4238 120.764 72.3844C122.604 70.7578 123.869 66.8002 123.881 66.761C123.893 66.7246 123.912 66.6907 123.937 66.6612C123.962 66.6318 123.992 66.6075 124.027 66.5896C124.062 66.5716 124.1 66.5605 124.139 66.5569C124.178 66.5532 124.217 66.5571 124.255 66.5682C124.292 66.5793 124.327 66.5976 124.358 66.6218C124.388 66.646 124.413 66.6758 124.432 66.7095C124.45 66.7431 124.461 66.78 124.465 66.8179C124.469 66.8559 124.465 66.8942 124.454 66.9306C124.4 67.0988 123.128 71.0782 121.166 72.8135C121.112 72.8618 121.04 72.8887 120.966 72.8889Z" fill="black"/>
<path d="M119.271 71.6222C119.211 71.6225 119.151 71.6038 119.102 71.5688C119.052 71.5338 119.015 71.4842 118.995 71.4269C118.974 71.3695 118.972 71.3073 118.989 71.2488C119.006 71.1903 119.04 71.1384 119.087 71.1003C120.751 69.7457 122.621 64.6701 122.64 64.6203C122.67 64.5519 122.724 64.4975 122.793 64.4681C122.861 64.4387 122.938 64.4366 123.008 64.4623C123.078 64.4879 123.135 64.5393 123.169 64.6059C123.202 64.6726 123.209 64.7496 123.188 64.8211C123.109 65.0367 121.243 70.099 119.455 71.5563C119.403 71.5988 119.338 71.6221 119.271 71.6222Z" fill="black"/>
<path d="M45.2239 91.0444C45.1773 91.0444 45.1314 91.0337 45.0902 91.013C45.0489 90.9924 45.0136 90.9626 44.9873 90.9261L41.767 86.4114C41.7441 86.3819 41.7277 86.3483 41.7188 86.3127C41.7099 86.277 41.7087 86.24 41.7152 86.2038C41.7217 86.1677 41.7359 86.1332 41.7569 86.1024C41.7778 86.0716 41.8051 86.0451 41.8371 86.0245C41.8691 86.004 41.9051 85.9898 41.9431 85.9828C41.981 85.9758 42.02 85.9761 42.0578 85.9838C42.0956 85.9915 42.1313 86.0063 42.1629 86.0274C42.1945 86.0485 42.2213 86.0755 42.2416 86.1067L45.4619 90.6199C45.4911 90.6609 45.5079 90.7086 45.5107 90.758C45.5134 90.8073 45.5019 90.8565 45.4775 90.9001C45.453 90.9438 45.4165 90.9803 45.3718 91.0057C45.3271 91.0311 45.276 91.0445 45.2239 91.0444Z" fill="black"/>
<path d="M21.5703 72.0445C21.4963 72.0443 21.425 72.0175 21.3702 71.9692C19.4107 70.2332 18.1382 66.2665 18.0844 66.0987C18.0707 66.0618 18.0648 66.0226 18.0672 65.9835C18.0695 65.9444 18.0801 65.9061 18.0982 65.8711C18.1163 65.836 18.1415 65.8049 18.1724 65.7796C18.2033 65.7543 18.2392 65.7353 18.2779 65.7238C18.3166 65.7123 18.3573 65.7086 18.3975 65.7128C18.4377 65.717 18.4767 65.7291 18.5119 65.7483C18.5472 65.7676 18.578 65.7935 18.6026 65.8247C18.6272 65.8558 18.645 65.8914 18.6549 65.9294C18.6684 65.9685 19.9334 69.9179 21.7705 71.5425C21.8146 71.5819 21.8454 71.6333 21.859 71.6899C21.8725 71.7466 21.8681 71.8058 21.8463 71.86C21.8246 71.9142 21.7864 71.9608 21.737 71.9937C21.6875 72.0266 21.6289 72.0443 21.5689 72.0445H21.5703Z" fill="black"/>
<path d="M23.2644 70.7778C23.1974 70.7777 23.1325 70.7544 23.0805 70.712C21.2932 69.2595 19.433 64.2074 19.3513 63.9939C19.338 63.9577 19.332 63.9194 19.3336 63.8809C19.3352 63.8425 19.3443 63.8048 19.3604 63.7698C19.3765 63.7349 19.3994 63.7036 19.4276 63.6775C19.4558 63.6514 19.4889 63.6312 19.5249 63.6179C19.5609 63.6047 19.5992 63.5987 19.6375 63.6003C19.6759 63.6018 19.7135 63.611 19.7483 63.6271C19.7832 63.6433 19.8145 63.6662 19.8405 63.6945C19.8665 63.7227 19.8866 63.7559 19.8999 63.792C19.9188 63.8432 21.7849 68.9114 23.4482 70.2585C23.4948 70.2967 23.5286 70.3483 23.5448 70.4064C23.561 70.4645 23.5589 70.5262 23.5388 70.5831C23.5187 70.64 23.4815 70.6892 23.4324 70.724C23.3832 70.7589 23.3245 70.7777 23.2644 70.7778Z" fill="black"/>
<path d="M68.9445 132C68.8885 132 68.8348 131.97 68.7952 131.917C68.7556 131.863 68.7334 131.791 68.7334 131.715V117.929C68.7334 117.854 68.7556 117.781 68.7952 117.728C68.8348 117.674 68.8885 117.644 68.9445 117.644C69.0005 117.644 69.0542 117.674 69.0938 117.728C69.1334 117.781 69.1556 117.854 69.1556 117.929V131.715C69.1556 131.791 69.1334 131.863 69.0938 131.917C69.0542 131.97 69.0005 132 68.9445 132Z" fill="white"/>
<path d="M68.9445 109.622C68.8885 109.622 68.8348 109.592 68.7952 109.539C68.7556 109.485 68.7334 109.413 68.7334 109.337V102.73C68.7334 102.654 68.7556 102.581 68.7952 102.528C68.8348 102.475 68.8885 102.444 68.9445 102.444C69.0005 102.444 69.0542 102.475 69.0938 102.528C69.1334 102.581 69.1556 102.654 69.1556 102.73V109.337C69.1556 109.413 69.1334 109.485 69.0938 109.539C69.0542 109.592 69.0005 109.622 68.9445 109.622Z" fill="white"/>
<path d="M86.9879 110.041C86.9709 110.042 86.9537 110.042 86.9367 110.041C83.3178 109.425 81.4301 107.487 80.4855 105.959C79.8661 104.982 79.4594 103.893 79.2904 102.758C79.2866 102.721 79.2903 102.683 79.3015 102.647C79.3127 102.611 79.331 102.578 79.3555 102.549C79.38 102.52 79.4101 102.496 79.4442 102.478C79.4782 102.461 79.5155 102.45 79.554 102.446C79.5925 102.442 79.6313 102.446 79.6683 102.457C79.7053 102.467 79.7398 102.485 79.7697 102.509C79.7996 102.533 79.8244 102.562 79.8427 102.595C79.861 102.628 79.8724 102.664 79.8762 102.701C80.0453 103.757 80.4286 104.769 81.0039 105.681C82.2897 107.735 84.321 109.012 87.0421 109.476C87.1198 109.482 87.1917 109.518 87.2419 109.576C87.2922 109.634 87.3167 109.709 87.3101 109.784C87.3035 109.859 87.2663 109.929 87.2067 109.977C87.1471 110.026 87.07 110.05 86.9923 110.043L86.9879 110.041Z" fill="white"/>
<path d="M52.5555 110.467C52.121 110.465 51.6871 110.437 51.2562 110.383C51.1791 110.373 51.109 110.334 51.0614 110.273C51.0137 110.213 50.9925 110.136 51.0024 110.061C51.0122 109.985 51.0523 109.916 51.1138 109.87C51.1753 109.823 51.2533 109.802 51.3304 109.812C53.4953 110.084 55.2383 109.659 56.5114 108.552C58.8639 106.505 58.8625 102.767 58.8625 102.73C58.8625 102.654 58.8931 102.582 58.9477 102.528C59.0023 102.475 59.0763 102.444 59.1535 102.444C59.2306 102.444 59.3046 102.475 59.3592 102.528C59.4138 102.582 59.4444 102.654 59.4444 102.73C59.4444 102.892 59.4444 106.759 56.8998 108.98C55.765 109.969 54.3072 110.467 52.5555 110.467Z" fill="white"/>
<path d="M43.8223 78.9817L52.3326 83.8667L57.7556 66.661C57.7556 66.661 50.2368 64.5727 43.8223 78.9817Z" fill="black"/>
<path d="M47.2508 61.4889H25.1908C24.0856 61.4878 23.0259 61.0451 22.2444 60.2581C21.4629 59.4711 21.0234 58.404 21.0222 57.291V39.5191C21.0215 38.9669 21.1288 38.4199 21.3381 37.9095C21.5474 37.3991 21.8545 36.9353 22.2419 36.5445C22.6293 36.1537 23.0894 35.8436 23.5959 35.632C24.1024 35.4203 24.6453 35.3113 25.1937 35.3111H47.2536C48.3588 35.3123 49.4185 35.7549 50.2 36.5419C50.9815 37.3289 51.4211 38.396 51.4222 39.509V57.281C51.423 57.8332 51.3156 58.3801 51.1063 58.8905C50.8971 59.4009 50.5899 59.8648 50.2025 60.2556C49.8151 60.6464 49.355 60.9565 48.8485 61.1681C48.342 61.3797 47.7991 61.4887 47.2508 61.4889ZM25.1937 35.8844C24.2394 35.8856 23.3246 36.2678 22.6498 36.9473C21.9751 37.6268 21.5955 38.5481 21.5944 39.509V57.281C21.5955 58.2419 21.9751 59.1632 22.6498 59.8427C23.3246 60.5222 24.2394 60.9044 25.1937 60.9056H47.2536C48.208 60.9048 49.123 60.5227 49.7979 59.8431C50.4727 59.1635 50.8522 58.242 50.8529 57.281V39.509C50.8522 38.5475 50.4723 37.6255 49.7969 36.9459C49.1214 36.2662 48.2056 35.8844 47.2508 35.8844H25.1937Z" fill="black"/>
<path d="M49.0271 45.4444H41.573C41.4977 45.4444 41.4254 45.4222 41.3721 45.3826C41.3189 45.343 41.2889 45.2893 41.2889 45.2333C41.2889 45.1773 41.3189 45.1236 41.3721 45.084C41.4254 45.0445 41.4977 45.0222 41.573 45.0222H49.0271C49.1024 45.0222 49.1747 45.0445 49.228 45.084C49.2812 45.1236 49.3112 45.1773 49.3112 45.2333C49.3112 45.2893 49.2812 45.343 49.228 45.3826C49.1747 45.4222 49.1024 45.4444 49.0271 45.4444Z" fill="black"/>
<path d="M49.0271 48.4H41.573C41.4977 48.4 41.4254 48.3778 41.3721 48.3382C41.3189 48.2986 41.2889 48.2449 41.2889 48.1889C41.2889 48.1329 41.3189 48.0792 41.3721 48.0396C41.4254 48 41.4977 47.9778 41.573 47.9778H49.0271C49.1024 47.9778 49.1747 48 49.228 48.0396C49.2812 48.0792 49.3112 48.1329 49.3112 48.1889C49.3112 48.2449 49.2812 48.2986 49.228 48.3382C49.1747 48.3778 49.1024 48.4 49.0271 48.4Z" fill="black"/>
<path d="M46.9238 51.3556H41.5652C41.4919 51.3556 41.4217 51.3333 41.3699 51.2937C41.318 51.2541 41.2889 51.2005 41.2889 51.1445C41.2889 51.0885 41.318 51.0348 41.3699 50.9952C41.4217 50.9556 41.4919 50.9333 41.5652 50.9333H46.9238C46.997 50.9333 47.0673 50.9556 47.1191 50.9952C47.1709 51.0348 47.2001 51.0885 47.2001 51.1445C47.2001 51.2005 47.1709 51.2541 47.1191 51.2937C47.0673 51.3333 46.997 51.3556 46.9238 51.3556Z" fill="black"/>
<path d="M36.8997 54.3111H27.3796L26.5111 50.9333H37.4889L36.8997 54.3111ZM27.7937 53.697H36.4411L36.8122 51.5475H27.2406L27.7937 53.697Z" fill="black"/>
<path d="M32.2111 54.3111C32.1551 54.3111 32.1014 54.2788 32.0618 54.2212C32.0222 54.1636 32 54.0855 32 54.0041V51.2404C32 51.159 32.0222 51.0809 32.0618 51.0233C32.1014 50.9657 32.1551 50.9333 32.2111 50.9333C32.2671 50.9333 32.3208 50.9657 32.3604 51.0233C32.4 51.0809 32.4222 51.159 32.4222 51.2404V54.0041C32.4222 54.0855 32.4 54.1636 32.3604 54.2212C32.3208 54.2788 32.2671 54.3111 32.2111 54.3111Z" fill="black"/>
<path d="M36.6444 54.7333C37.1107 54.7333 37.4888 54.3552 37.4888 53.8889C37.4888 53.4225 37.1107 53.0444 36.6444 53.0444C36.178 53.0444 35.7999 53.4225 35.7999 53.8889C35.7999 54.3552 36.178 54.7333 36.6444 54.7333Z" fill="black"/>
<path d="M32.4222 54.7333C32.8886 54.7333 33.2666 54.3552 33.2666 53.8889C33.2666 53.4225 32.8886 53.0444 32.4222 53.0444C31.9558 53.0444 31.5778 53.4225 31.5778 53.8889C31.5778 54.3552 31.9558 54.7333 32.4222 54.7333Z" fill="black"/>
<path d="M27.7778 54.7333C28.2442 54.7333 28.6222 54.3552 28.6222 53.8889C28.6222 53.4225 28.2442 53.0444 27.7778 53.0444C27.3114 53.0444 26.9333 53.4225 26.9333 53.8889C26.9333 54.3552 27.3114 54.7333 27.7778 54.7333Z" fill="black"/>
<path d="M25.1119 45.8667C25.0673 45.8668 25.0232 45.8578 24.9832 45.8402C24.9432 45.8226 24.9083 45.797 24.8813 45.7653L23.2673 43.8655C23.1927 43.777 23.1473 43.6717 23.136 43.5615C23.1248 43.4513 23.1482 43.3405 23.2037 43.2414C23.2592 43.1424 23.3445 43.0591 23.4502 43.0007C23.5558 42.9424 23.6776 42.9114 23.802 42.9111H28.7319C28.9222 42.9112 29.1097 42.9515 29.2791 43.0286C29.4484 43.1058 29.5948 43.2176 29.7061 43.355L31.9341 45.4267C31.9804 45.4766 32.0037 45.5403 31.9995 45.6049C31.9952 45.6696 31.9637 45.7304 31.9112 45.7752C31.8587 45.82 31.789 45.8455 31.7163 45.8465C31.6436 45.8475 31.5731 45.824 31.519 45.7807L29.2407 43.6654C29.1833 43.5911 29.1065 43.5303 29.0169 43.4882C28.9273 43.4462 28.8275 43.4243 28.7262 43.4242H23.7962C23.7788 43.424 23.7616 43.4282 23.7468 43.4364C23.732 43.4446 23.7201 43.4564 23.7126 43.4704C23.705 43.4841 23.7017 43.4993 23.7032 43.5145C23.7048 43.5297 23.711 43.5442 23.7213 43.5564L25.3411 45.4549C25.3641 45.4817 25.381 45.5124 25.3908 45.545C25.4005 45.5777 25.4029 45.6118 25.3978 45.6453C25.3928 45.6788 25.3803 45.711 25.3611 45.7402C25.342 45.7694 25.3166 45.795 25.2863 45.8154C25.236 45.8489 25.1748 45.867 25.1119 45.8667Z" fill="black"/>
<path d="M32.4222 51.7778H37.8165L39.1629 45.8049C39.1837 45.7102 39.1827 45.612 39.1599 45.5178C39.1371 45.4235 39.0932 45.3355 39.0313 45.2603C38.9694 45.1851 38.8911 45.1247 38.8024 45.0834C38.7136 45.0422 38.6166 45.0213 38.5186 45.0222H32.4222V51.7778Z" fill="#CB9173"/>
<path d="M26.4831 51.7778H32.4222V45.0222H25.0879C24.9789 45.0219 24.8714 45.0469 24.7743 45.095C24.6771 45.1432 24.5932 45.2132 24.5295 45.2992C24.4657 45.3852 24.424 45.4848 24.4077 45.5896C24.3914 45.6944 24.4011 45.8015 24.4359 45.902L26.4831 51.7778Z" fill="#CB9173"/>
<path d="M32.2111 50.9333C32.1551 50.9333 32.1014 50.9034 32.0618 50.8501C32.0222 50.7969 32 50.7246 32 50.6492V45.7286C32 45.6532 32.0222 45.5809 32.0618 45.5277C32.1014 45.4744 32.1551 45.4445 32.2111 45.4445C32.2671 45.4445 32.3208 45.4744 32.3604 45.5277C32.3999 45.5809 32.4222 45.6532 32.4222 45.7286V50.6436C32.4227 50.6813 32.4177 50.7189 32.4073 50.754C32.397 50.7892 32.3815 50.8211 32.3619 50.8481C32.3422 50.8751 32.3187 50.8966 32.2929 50.9112C32.267 50.9258 32.2392 50.9334 32.2111 50.9333Z" fill="black"/>
<path d="M29.9026 109.2H21.0114C20.5665 109.2 20.1399 109.017 19.8253 108.691C19.5106 108.366 19.3337 107.924 19.3334 107.464V98.2678C19.3341 97.8077 19.5112 97.3668 19.8257 97.0417C20.1403 96.7165 20.5667 96.5337 21.0114 96.5333H29.8998C30.3447 96.5337 30.7713 96.7167 31.0859 97.0422C31.4005 97.3676 31.5775 97.8089 31.5778 98.2692V107.466C31.5771 107.925 31.4004 108.366 31.0864 108.691C30.7725 109.016 30.3468 109.199 29.9026 109.2ZM21.0114 97.1062C20.7133 97.1066 20.4276 97.2292 20.2168 97.4473C20.0061 97.6653 19.8875 97.9609 19.8872 98.2692V107.466C19.8875 107.774 20.0061 108.069 20.2168 108.287C20.4276 108.506 20.7133 108.628 21.0114 108.629H29.8998C30.1979 108.628 30.4836 108.506 30.6943 108.287C30.9051 108.069 31.0237 107.774 31.024 107.466V98.2678C31.0237 97.9594 30.9051 97.6638 30.6943 97.4458C30.4836 97.2278 30.1979 97.1052 29.8998 97.1048L21.0114 97.1062Z" fill="black"/>
<path d="M23.3459 101.6C23.0535 101.6 22.7676 101.526 22.5244 101.387C22.2811 101.248 22.0915 101.05 21.9795 100.819C21.8674 100.587 21.8381 100.332 21.895 100.087C21.952 99.8407 22.0928 99.6149 22.2995 99.4376C22.5063 99.2604 22.7697 99.1398 23.0565 99.0909C23.3433 99.0421 23.6406 99.0673 23.9107 99.1633C24.1808 99.2593 24.4115 99.4219 24.5738 99.6304C24.7361 99.8389 24.8225 100.084 24.8223 100.335C24.8219 100.67 24.6662 100.992 24.3894 101.229C24.1126 101.466 23.7374 101.6 23.3459 101.6ZM23.3459 99.5705C23.1696 99.5703 22.9971 99.6149 22.8503 99.6987C22.7036 99.7825 22.5891 99.9017 22.5214 100.041C22.4537 100.181 22.4358 100.335 22.4701 100.483C22.5043 100.631 22.5891 100.767 22.7137 100.874C22.8383 100.981 22.9971 101.054 23.17 101.084C23.343 101.113 23.5223 101.098 23.6852 101.041C23.8482 100.983 23.9875 100.885 24.0855 100.759C24.1835 100.634 24.2358 100.486 24.2358 100.335C24.2358 100.132 24.1421 99.938 23.9753 99.7948C23.8084 99.6515 23.5821 99.5709 23.3459 99.5705Z" fill="black"/>
<path d="M27.5666 106.244C27.2744 106.244 26.9887 106.158 26.7456 105.995C26.5026 105.833 26.3132 105.602 26.2014 105.332C26.0895 105.062 26.0602 104.765 26.1173 104.478C26.1743 104.192 26.315 103.928 26.5217 103.722C26.7284 103.515 26.9917 103.374 27.2783 103.317C27.565 103.26 27.8621 103.29 28.1322 103.401C28.4022 103.513 28.633 103.703 28.7954 103.946C28.9578 104.189 29.0444 104.474 29.0444 104.767C29.044 105.158 28.8882 105.534 28.6112 105.811C28.3341 106.088 27.9585 106.244 27.5666 106.244ZM27.5666 103.876C27.3905 103.876 27.2182 103.928 27.0718 104.026C26.9253 104.124 26.8111 104.263 26.7437 104.426C26.6763 104.589 26.6586 104.768 26.693 104.94C26.7274 105.113 26.8122 105.272 26.9368 105.397C27.0613 105.521 27.2201 105.606 27.3929 105.64C27.5657 105.675 27.7448 105.657 27.9075 105.59C28.0703 105.522 28.2094 105.408 28.3073 105.262C28.4052 105.115 28.4574 104.943 28.4574 104.767C28.4578 104.649 28.4351 104.533 28.3905 104.425C28.3459 104.316 28.2803 104.218 28.1976 104.135C28.1148 104.052 28.0165 103.986 27.9082 103.941C27.7999 103.896 27.6839 103.873 27.5666 103.873V103.876Z" fill="black"/>
<path d="M22.5759 107.089C22.5243 107.088 22.4739 107.074 22.4299 107.048C22.3637 107.009 22.3162 106.947 22.2975 106.874C22.2789 106.801 22.2908 106.725 22.3305 106.661L27.2348 98.7813C27.2749 98.717 27.3397 98.6707 27.4151 98.6527C27.4904 98.6347 27.57 98.6464 27.6364 98.6852C27.7029 98.724 27.7507 98.7867 27.7693 98.8596C27.7879 98.9325 27.7758 99.0095 27.7358 99.0738L22.8315 106.952C22.8051 106.994 22.7675 107.029 22.7227 107.053C22.6778 107.078 22.6272 107.09 22.5759 107.089Z" fill="black"/>
<path d="M131.876 111.733H119.596C118.761 111.733 117.959 111.398 117.368 110.803C116.778 110.208 116.445 109.401 116.444 108.559V84.0828C116.446 83.2426 116.778 82.4371 117.367 81.8427C117.957 81.2484 118.756 80.9134 119.591 80.9111H131.87C132.706 80.9119 133.507 81.2466 134.098 81.8417C134.689 82.4369 135.021 83.2439 135.022 84.0856V108.559C135.021 109.399 134.689 110.205 134.1 110.8C133.51 111.395 132.711 111.731 131.876 111.733ZM119.591 81.4798C118.905 81.4805 118.247 81.7553 117.762 82.2438C117.277 82.7324 117.004 83.3947 117.003 84.0856V108.559C117.004 109.25 117.277 109.912 117.762 110.401C118.247 110.889 118.905 111.164 119.591 111.165H131.87C132.556 111.164 133.214 110.889 133.699 110.401C134.184 109.912 134.457 109.25 134.458 108.559V84.0828C134.456 83.3934 134.184 82.7326 133.7 82.2448C133.216 81.7571 132.561 81.482 131.876 81.4798H119.591Z" fill="black"/>
<path d="M129.491 99.0667H121.976C121.253 99.0667 120.667 99.6546 120.667 100.38V104.931C120.667 105.656 121.253 106.244 121.976 106.244H129.491C130.214 106.244 130.8 105.656 130.8 104.931V100.38C130.8 99.6546 130.214 99.0667 129.491 99.0667Z" fill="#CB9173"/>
<path d="M130.518 102.022H120.949C120.874 102.022 120.802 101.978 120.749 101.899C120.696 101.819 120.667 101.712 120.667 101.6C120.667 101.488 120.696 101.381 120.749 101.301C120.802 101.222 120.874 101.178 120.949 101.178H130.518C130.592 101.178 130.664 101.222 130.717 101.301C130.77 101.381 130.8 101.488 130.8 101.6C130.8 101.712 130.77 101.819 130.717 101.899C130.664 101.978 130.592 102.022 130.518 102.022Z" fill="black"/>
<path d="M123.855 105.4H122.545C122.267 105.39 122.005 105.274 121.812 105.077C121.619 104.88 121.511 104.618 121.511 104.344C121.511 104.071 121.619 103.808 121.812 103.612C122.005 103.415 122.267 103.299 122.545 103.289H123.855C124.133 103.299 124.395 103.415 124.588 103.612C124.781 103.808 124.889 104.071 124.889 104.344C124.889 104.618 124.781 104.88 124.588 105.077C124.395 105.274 124.133 105.39 123.855 105.4ZM122.545 103.881C122.425 103.888 122.312 103.94 122.229 104.026C122.146 104.112 122.1 104.226 122.1 104.344C122.1 104.463 122.146 104.577 122.229 104.663C122.312 104.749 122.425 104.801 122.545 104.807H123.855C123.975 104.801 124.088 104.749 124.171 104.663C124.254 104.577 124.3 104.463 124.3 104.344C124.3 104.226 124.254 104.112 124.171 104.026C124.088 103.94 123.975 103.888 123.855 103.881H122.545Z" fill="black"/>
<path d="M129.916 86.4H121.551C120.829 86.4 120.245 86.988 120.245 87.7133V92.2645C120.245 92.9898 120.829 93.5778 121.551 93.5778H129.916C130.637 93.5778 131.222 92.9898 131.222 92.2645V87.7133C131.222 86.988 130.637 86.4 129.916 86.4Z" fill="#6DC8C2"/>
<path d="M125.733 91.8889C125.399 91.8889 125.073 91.7774 124.795 91.5687C124.517 91.3599 124.301 91.0631 124.173 90.716C124.045 90.3688 124.012 89.9868 124.077 89.6182C124.142 89.2496 124.303 88.9111 124.539 88.6454C124.775 88.3796 125.076 88.1987 125.404 88.1254C125.731 88.0521 126.071 88.0897 126.38 88.2335C126.688 88.3773 126.952 88.6208 127.138 88.9333C127.323 89.2457 127.422 89.6131 127.422 89.9889C127.422 90.4927 127.244 90.9757 126.927 91.3319C126.611 91.6882 126.181 91.8885 125.733 91.8889ZM125.733 88.6817C125.504 88.6817 125.279 88.7584 125.088 88.902C124.897 89.0456 124.748 89.2498 124.66 89.4886C124.572 89.7275 124.549 89.9903 124.594 90.2439C124.639 90.4975 124.749 90.7304 124.912 90.9132C125.074 91.096 125.281 91.2205 125.507 91.2709C125.732 91.3214 125.966 91.2955 126.178 91.1965C126.39 91.0976 126.572 90.9301 126.699 90.7151C126.827 90.5001 126.895 90.2474 126.895 89.9889C126.895 89.6423 126.772 89.31 126.555 89.065C126.337 88.8199 126.041 88.6821 125.733 88.6817Z" fill="black"/>
<path d="M121.263 91.8889H120.245V91.2529H121.263C121.534 91.218 121.785 91.0698 121.967 90.8366C122.149 90.6034 122.25 90.3016 122.25 89.9889C122.25 89.6761 122.149 89.3743 121.967 89.1411C121.785 88.908 121.534 88.7598 121.263 88.7248H120.245V88.0889H121.263C121.677 88.1323 122.062 88.3512 122.342 88.7027C122.622 89.0543 122.778 89.513 122.778 89.9889C122.778 90.4648 122.622 90.9235 122.342 91.275C122.062 91.6265 121.677 91.8455 121.263 91.8889Z" fill="black"/>
<path d="M131.222 91.8889H130.205C129.791 91.8476 129.406 91.6295 129.125 91.2778C128.845 90.926 128.689 90.4661 128.689 89.9889C128.689 89.5116 128.845 89.0517 129.125 88.7C129.406 88.3482 129.791 88.1302 130.205 88.0889H131.218V88.7246H130.205C129.933 88.7578 129.682 88.9054 129.499 89.1388C129.317 89.3722 129.216 89.675 129.216 89.9889C129.216 90.3028 129.317 90.6055 129.499 90.839C129.682 91.0724 129.933 91.2199 130.205 91.2532H131.218L131.222 91.8889Z" fill="black"/>
<path d="M133.022 62.7556H98.1781C97.0889 62.7525 96.045 62.3126 95.2747 61.532C94.5043 60.7513 94.07 59.6933 94.0667 58.5891V36.9456C94.0697 35.8412 94.5038 34.7828 95.2742 34.0019C96.0446 33.2209 97.0886 32.7808 98.1781 32.7778H133.022C134.111 32.7808 135.155 33.2209 135.926 34.0019C136.696 34.7828 137.13 35.8412 137.133 36.9456V58.5891C137.13 59.6933 136.696 60.7513 135.925 61.532C135.155 62.3126 134.111 62.7525 133.022 62.7556ZM98.1781 33.3557C97.2394 33.3587 96.3401 33.7381 95.6763 34.4109C95.0125 35.0838 94.6383 35.9955 94.6353 36.9471V58.5891C94.6364 59.5411 95.0101 60.4538 95.6743 61.1269C96.3385 61.7999 97.239 62.1783 98.1781 62.1791H133.022C133.961 62.1783 134.861 61.7999 135.526 61.1269C136.19 60.4538 136.564 59.5411 136.565 58.5891V36.9456C136.562 35.9941 136.187 35.0824 135.524 34.4095C134.86 33.7366 133.961 33.3573 133.022 33.3542L98.1781 33.3557Z" fill="black"/>
<path d="M112.269 38.6889H101.198C100.058 38.6889 99.1333 39.6004 99.1333 40.7248V53.5418C99.1333 54.6663 100.058 55.5778 101.198 55.5778H112.269C113.409 55.5778 114.333 54.6663 114.333 53.5418V40.7248C114.333 39.6004 113.409 38.6889 112.269 38.6889Z" fill="#CB9173"/>
<path d="M107.155 47.5555H106.311V55.5778H107.155V47.5555Z" fill="black"/>
<path d="M120.843 39.1111H118.379C118.01 39.1111 117.711 39.4103 117.711 39.7793V42.2429C117.711 42.612 118.01 42.9111 118.379 42.9111H120.843C121.212 42.9111 121.511 42.612 121.511 42.2429V39.7793C121.511 39.4103 121.212 39.1111 120.843 39.1111Z" fill="#6DC8C2"/>
<path d="M126.68 39.1111H123.942C123.532 39.1111 123.2 39.4103 123.2 39.7793V42.2429C123.2 42.612 123.532 42.9111 123.942 42.9111H126.68C127.09 42.9111 127.422 42.612 127.422 42.2429V39.7793C127.422 39.4103 127.09 39.1111 126.68 39.1111Z" fill="#6DC8C2"/>
<path d="M132.591 39.1111H129.853C129.443 39.1111 129.111 39.4103 129.111 39.7793V42.2429C129.111 42.612 129.443 42.9111 129.853 42.9111H132.591C133.001 42.9111 133.333 42.612 133.333 42.2429V39.7793C133.333 39.4103 133.001 39.1111 132.591 39.1111Z" fill="#6DC8C2"/>
<path d="M133.053 47.1333H117.992C117.917 47.1333 117.846 47.0888 117.793 47.0097C117.741 46.9305 117.711 46.8231 117.711 46.7111C117.711 46.5991 117.741 46.4917 117.793 46.4125C117.846 46.3334 117.917 46.2889 117.992 46.2889H133.053C133.127 46.2889 133.198 46.3334 133.251 46.4125C133.304 46.4917 133.333 46.5991 133.333 46.7111C133.333 46.8231 133.304 46.9305 133.251 47.0097C133.198 47.0888 133.127 47.1333 133.053 47.1333Z" fill="black"/>
<path d="M133.053 50.0889H117.992C117.917 50.0889 117.846 50.0666 117.793 50.027C117.741 49.9875 117.711 49.9338 117.711 49.8778C117.711 49.8218 117.741 49.7681 117.793 49.7285C117.846 49.6889 117.917 49.6667 117.992 49.6667H133.053C133.127 49.6667 133.198 49.6889 133.251 49.7285C133.304 49.7681 133.333 49.8218 133.333 49.8778C133.333 49.9338 133.304 49.9875 133.251 50.027C133.198 50.0666 133.127 50.0889 133.053 50.0889Z" fill="black"/>
<path d="M127.981 53.0444H117.996C117.921 53.0444 117.848 53.0222 117.795 52.9826C117.741 52.943 117.711 52.8893 117.711 52.8333C117.711 52.7773 117.741 52.7236 117.795 52.6841C117.848 52.6445 117.921 52.6222 117.996 52.6222H127.981C128.057 52.6222 128.13 52.6445 128.183 52.6841C128.237 52.7236 128.267 52.7773 128.267 52.8333C128.267 52.8893 128.237 52.943 128.183 52.9826C128.13 53.0222 128.057 53.0444 127.981 53.0444Z" fill="black"/>
<path d="M109.647 47.5555H103.819C103.758 47.5555 103.698 47.5445 103.642 47.523C103.585 47.5015 103.534 47.47 103.491 47.4302C103.448 47.3905 103.414 47.3434 103.39 47.2915C103.367 47.2396 103.355 47.1841 103.356 47.128V44.4196C103.356 44.3555 103.383 44.294 103.433 44.2486C103.482 44.2033 103.549 44.1778 103.619 44.1778H109.847C109.881 44.1776 109.916 44.1837 109.948 44.1958C109.98 44.2079 110.009 44.2257 110.034 44.2481C110.058 44.2706 110.078 44.2973 110.091 44.3268C110.104 44.3562 110.111 44.3877 110.111 44.4196V47.128C110.111 47.1841 110.099 47.2396 110.076 47.2915C110.053 47.3434 110.019 47.3905 109.976 47.4302C109.933 47.47 109.882 47.5015 109.825 47.523C109.769 47.5445 109.708 47.5555 109.647 47.5555Z" fill="#FFBB45"/>
<path d="M106.733 45.0222C108.599 45.0222 110.111 44.5497 110.111 43.9667C110.111 43.3837 108.599 42.9111 106.733 42.9111C104.868 42.9111 103.356 43.3837 103.356 43.9667C103.356 44.5497 104.868 45.0222 106.733 45.0222Z" fill="black"/>
<path d="M84.0673 102.867H54.6661C54.5896 102.867 54.5163 102.844 54.4622 102.805C54.4082 102.765 54.3778 102.712 54.3778 102.656C54.3778 102.6 54.4082 102.546 54.4622 102.506C54.5163 102.467 54.5896 102.444 54.6661 102.444H84.0673C84.1438 102.444 84.2171 102.467 84.2712 102.506C84.3252 102.546 84.3556 102.6 84.3556 102.656C84.3556 102.712 84.3252 102.765 84.2712 102.805C84.2171 102.844 84.1438 102.867 84.0673 102.867Z" fill="white"/>
</g>
<defs>
<clipPath id="clip0_26_2028">
<rect width="150" height="150" fill="white"/>
</clipPath>
</defs>
</svg>
